<svg width="24" height="24" viewBox="0 0 24 24" fill="none" xmlns="http://www.w3.org/2000/svg">
<path d="M7.55279 11.6467C7.08208 10.6443 6.90965 9.5612 6.74019 8.50036C6.59204 7.57033 6.43893 6.60957 6.08169 5.73157C5.09467 3.31011 2.71038 1.68243 0.148207 1.68095L0.132847 1.68045C0.104109 1.785 0.0828026 1.89351 0.0753703 2.00896L0.023344 2.8617C-0.246698 7.25668 1.85517 11.1502 5.45539 13.1421C6.11439 12.5668 6.81848 12.0728 7.55279 11.6467Z" fill="#DDDDDD"/>
<path d="M6.99938 5.35796C7.40023 6.34101 7.56226 7.35973 7.71933 8.34427C7.87888 9.34516 8.03297 10.3114 8.42936 11.1775C10.114 10.3674 11.9468 9.93777 13.846 9.93777C13.8515 9.93777 13.8565 9.93826 13.8619 9.93826C13.1667 4.4968 8.75936 0.556671 3.06718 0.556671C2.81498 0.556671 2.56079 0.564599 2.30363 0.580455L1.45139 0.632976C1.27648 0.643382 1.11545 0.683021 0.966309 0.741984C3.59636 1.04621 5.9653 2.82155 6.99938 5.35796Z" fill="#DDDDDD"/>
<path d="M14.2478 17.0143C16.7079 19.4744 20.7115 19.4744 23.1716 17.0143L23.8048 16.4128C23.7008 16.1794 23.566 15.9535 23.3837 15.7474L22.8173 15.1082C20.434 12.4137 17.2485 10.9287 13.8465 10.9287C10.4445 10.9287 7.25796 12.4132 4.87516 15.1082L4.30931 15.7474C3.95206 16.1512 3.75436 16.6229 3.69788 17.105L3.84157 16.993C6.71838 14.139 11.3804 14.1464 14.2478 17.0143Z" fill="#DDDDDD"/>
<path d="M23.8628 17.7239C22.4917 19.0954 20.6584 19.8555 18.7097 19.8555C16.7609 19.8555 14.9271 19.0954 13.5472 17.7154C12.3545 16.5228 10.7511 15.8658 9.03377 15.8658C7.3164 15.8658 5.713 16.5228 4.52036 17.7154L4.47428 17.7551L3.84253 18.2486C3.94856 18.5157 4.10266 18.7718 4.30878 19.0052L4.87463 19.6449C7.25793 22.3393 10.4439 23.8238 13.846 23.8238C17.248 23.8238 20.434 22.3398 22.8168 19.6454L23.3831 19.0057C23.7538 18.5865 23.9529 18.094 23.9995 17.5936L23.8628 17.7239Z" fill="#DDDDDD"/>
</svg>
