<svg width="19" height="19" viewBox="0 0 19 19" fill="none" xmlns="http://www.w3.org/2000/svg">
<path d="M6.02785 0.657611C6.61585 0.675494 7.18519 0.77816 7.73679 0.96576H7.79185C7.82919 0.983494 7.85719 1.00309 7.87585 1.02083C8.08212 1.08709 8.27719 1.16176 8.46385 1.26443L8.81852 1.42309C8.95852 1.49776 9.12652 1.63683 9.21985 1.69376C9.31319 1.74883 9.41585 1.80576 9.49985 1.87016C10.5368 1.07776 11.7959 0.648427 13.0932 0.657611C13.6821 0.657611 14.2701 0.740827 14.8292 0.928427C18.2741 2.04843 19.5155 5.82843 18.4785 9.13243C17.8905 10.8208 16.9292 12.3618 15.6701 13.6208C13.8679 15.3662 11.8901 16.9155 9.76119 18.2502L9.52785 18.3911L9.28519 18.2408C7.14879 16.9155 5.15985 15.3662 3.34079 13.6115C2.09012 12.3524 1.12785 10.8208 0.530519 9.13243C-0.524147 5.82843 0.717186 2.04843 4.19945 0.908827C4.47012 0.815494 4.74919 0.75016 5.02919 0.71376H5.14119C5.40345 0.675494 5.66385 0.657611 5.92519 0.657611H6.02785ZM14.3439 3.60709C13.9612 3.47549 13.5412 3.68176 13.4012 4.07376C13.2705 4.46576 13.4759 4.89509 13.8679 5.03416C14.4661 5.25816 14.8665 5.84709 14.8665 6.49949V6.52843C14.8488 6.74216 14.9132 6.94843 15.0439 7.10709C15.1745 7.26576 15.3705 7.35816 15.5759 7.37776C15.9585 7.36749 16.2852 7.06043 16.3132 6.66749V6.55643C16.3412 5.24883 15.5488 4.06443 14.3439 3.60709Z" fill="#FF0000"/>
</svg>
