<svg width="15" height="14" viewBox="0 0 15 14" fill="none" xmlns="http://www.w3.org/2000/svg">
<path d="M6.54894 1.11754C6.8483 0.196229 8.1517 0.196231 8.45106 1.11754L9.40837 4.06385C9.54224 4.47587 9.9262 4.75483 10.3594 4.75483H13.4574C14.4261 4.75483 14.8289 5.99445 14.0451 6.56385L11.5389 8.38476C11.1884 8.63941 11.0417 9.09077 11.1756 9.5028L12.1329 12.4491C12.4323 13.3704 11.3778 14.1365 10.5941 13.5671L8.08778 11.7462C7.7373 11.4916 7.2627 11.4916 6.91221 11.7462L4.40594 13.5671C3.62222 14.1365 2.56774 13.3704 2.8671 12.4491L3.82441 9.5028C3.95828 9.09077 3.81162 8.63941 3.46114 8.38476L0.954859 6.56384C0.171145 5.99444 0.573923 4.75483 1.54265 4.75483H4.64057C5.0738 4.75483 5.45776 4.47587 5.59163 4.06385L6.54894 1.11754Z" fill="#D17842"/>
</svg>
