<svg width="32" height="32" viewBox="0 0 32 32" fill="none" xmlns="http://www.w3.org/2000/svg">
<path d="M11.5732 18.0479C13.2182 18.0479 14.5365 19.3791 14.5365 21.0357V25.0129C14.5365 26.6579 13.2182 27.9995 11.5732 27.9995H7.62988C5.99656 27.9995 4.66656 26.6579 4.66656 25.0129V21.0357C4.66656 19.3791 5.99656 18.0479 7.62988 18.0479H11.5732ZM25.0366 18.0479C26.6699 18.0479 27.9999 19.3791 27.9999 21.0357V25.0129C27.9999 26.6579 26.6699 27.9995 25.0366 27.9995H21.0933C19.4483 27.9995 18.1299 26.6579 18.1299 25.0129V21.0357C18.1299 19.3791 19.4483 18.0479 21.0933 18.0479H25.0366ZM11.5732 4.66666C13.2182 4.66666 14.5365 6.00832 14.5365 7.65448V11.6316C14.5365 13.2883 13.2182 14.6183 11.5732 14.6183H7.62988C5.99656 14.6183 4.66656 13.2883 4.66656 11.6316V7.65448C4.66656 6.00832 5.99656 4.66666 7.62988 4.66666H11.5732ZM25.0366 4.66666C26.6699 4.66666 27.9999 6.00832 27.9999 7.65448V11.6316C27.9999 13.2883 26.6699 14.6183 25.0366 14.6183H21.0933C19.4483 14.6183 18.1299 13.2883 18.1299 11.6316V7.65448C18.1299 6.00832 19.4483 4.66666 21.0933 4.66666H25.0366Z" fill="#967259"/>
</svg>
